<svg xmlns="http://www.w3.org/2000/svg" xmlns:svg="http://www.w3.org/2000/svg" id="svg8" width="512" height="512" version="1.1" viewBox="0 0 135.467 135.467"><metadata id="metadata5"/><g id="layer1" transform="translate(-30.809093,-111.78601)"><g id="g4502" transform="matrix(1.096096,0,0,1.096096,-2.960633,-44.023579)"><g style="fill:#00a5c0;fill-opacity:1" id="g5125" transform="translate(-1.3333333e-6,-1.3439941e-6)"><g id="text4489" aria-label="Mi" transform="matrix(0.91391326,0,0,0.91391326,7.9719907,17.595761)" style="font-style:normal;font-variant:normal;font-weight:400;font-stretch:normal;font-size:141.03404236000000083px;line-height:476.69509887999998909px;font-family:'OTADESIGN Rounded';-inkscape-font-specification:'OTADESIGN Rounded';letter-spacing:0;word-spacing:0;fill:#00a5c0;fill-opacity:1;stroke:none;stroke-width:.28950601999999998px;stroke-linecap:butt;stroke-linejoin:miter;stroke-opacity:1"><path style="font-style:normal;font-variant:normal;font-weight:400;font-stretch:normal;font-family:'OTADESIGN Rounded';-inkscape-font-specification:'OTADESIGN Rounded';fill:#00a5c0;fill-opacity:1;stroke-width:1.0960961600000001px" id="path5210" d="M 62.474609 76.585938 C 54.999059 76.585938 47.878825 77.832365 41.115234 80.324219 C 29.011968 84.595952 19.044417 92.249798 11.212891 103.28516 C 3.7373405 113.96451 0 125.88934 0 139.06055 L 0 372.93945 C 0 390.02642 6.0510264 404.79858 18.154297 417.25781 C 30.613543 429.36108 45.387643 435.41406 62.474609 435.41406 C 79.917556 435.41406 94.689698 429.36108 106.79297 417.25781 C 119.25222 404.79858 125.48242 390.02642 125.48242 372.93945 L 125.48242 330.4082 C 125.61683 321.19698 135.10492 323.61391 139.90039 330.4082 C 148.8815 345.96215 167.92265 359.32062 190.0918 359.24414 C 212.26095 359.16778 230.67374 348.20715 240.28516 330.4082 C 243.92497 326.11557 254.18418 318.80145 255.23633 330.4082 L 255.23633 372.93945 C 255.23633 390.02642 261.28735 404.79858 273.39062 417.25781 C 285.84985 429.36108 300.62397 435.41406 317.71094 435.41406 C 335.15388 435.41406 349.92603 429.36108 362.0293 417.25781 C 374.48853 404.79858 380.71875 390.02642 380.71875 372.93945 L 380.71875 139.06055 C 380.71875 125.88934 376.80415 113.96451 368.97266 103.28516 C 361.49709 92.249798 351.70678 84.595952 339.60352 80.324219 C 332.48396 77.832365 325.3637 76.585938 318.24414 76.585938 C 299.02128 76.585938 282.82549 84.062587 269.6543 99.013672 C 262.53473 107.20121 258.79542 111.11761 258.43945 110.76172 C 258.43945 110.76172 207.67587 172.14495 206.25195 173.21289 C 204.82804 174.2808 200.11102 182.44531 190.0918 182.44531 C 180.07257 182.44531 175.89071 174.2808 174.4668 173.21289 C 173.04288 172.14495 122.2793 110.76172 122.2793 110.76172 C 121.21136 110.40575 117.29484 106.48923 110.53125 99.013672 C 97.716024 84.062587 81.697447 76.585938 62.474609 76.585938 z M 457.53516 76.585938 C 442.58406 76.585937 429.7692 81.926117 419.08984 92.605469 C 408.76646 102.92885 403.60547 115.56648 403.60547 130.51758 C 403.60547 145.46868 408.76646 158.28354 419.08984 168.96289 C 429.7692 179.28627 442.58406 184.44922 457.53516 184.44922 C 472.48625 184.44922 485.30112 179.28627 495.98047 168.96289 C 506.65982 158.28354 512 145.46868 512 130.51758 C 512 115.56648 506.65982 102.92885 495.98047 92.605469 C 485.30112 81.926117 472.48625 76.585938 457.53516 76.585938 z M 458.06836 195.12695 C 443.11726 195.12695 430.3024 200.46713 419.62305 211.14648 C 408.94369 221.82584 403.60547 234.6407 403.60547 249.5918 L 403.60547 381.48242 C 403.60547 396.43352 408.94369 409.24838 419.62305 419.92773 C 430.3024 430.25112 443.11726 435.41406 458.06836 435.41406 C 473.01946 435.41406 485.65709 430.25112 495.98047 419.92773 C 506.65982 409.24838 512 396.43352 512 381.48242 L 512 249.5918 C 512 234.6407 506.65982 221.82584 495.98047 211.14648 C 485.65709 200.46713 473.01946 195.12695 458.06836 195.12695 z" transform="matrix(0.26412464,0,0,0.26412464,24.988264,136.28626)"/></g></g></g></g></svg>