<svg xmlns="http://www.w3.org/2000/svg" xmlns:xlink="http://www.w3.org/1999/xlink" width="256" height="256" version="1.1" viewBox="0 0 256 256"><title/><desc/><g id="Classic" fill="none" fill-rule="evenodd" stroke="none" stroke-width="1"><g id="Binance-Coin" fill="#F3BA2F"><g transform="translate(-1570.000000, -2488.000000) translate(1570.000000, 2488.000000)"><polygon id="Fill-3" points="8.309 147.721 48.429 147.721 48.429 107.601 8.309 107.601" transform="translate(28.369115, 127.661019) rotate(-45.000000) translate(-28.369115, -127.661019)"/><polygon id="Fill-3" points="206.893 147.721 247.013 147.721 247.013 107.601 206.893 107.601" transform="translate(226.952923, 127.661019) rotate(-45.000000) translate(-226.952923, -127.661019)"/><polygon id="Fill-3" points="107.601 147.721 147.721 147.721 147.721 107.601 107.601 107.601" transform="translate(127.661019, 127.661019) rotate(-45.000000) translate(-127.661019, -127.661019)"/><path id="Combined-Shape" d="M182.826002,42.9100781 L182.826002,22.8500842 L72.4960362,22.8500842 L72.4960362,62.970072 L142.706015,62.970072 L142.706015,133.180051 L182.826002,133.180051 L182.826002,42.9100781 Z" transform="translate(127.661019, 78.015067) rotate(-45.000000) translate(-127.661019, -78.015067)"/><path id="Combined-Shape" d="M182.826002,142.201982 L182.826002,122.141988 L72.4960362,122.141988 L72.4960362,162.261976 L142.706015,162.261976 L142.706015,232.471954 L182.826002,232.471954 L182.826002,142.201982 Z" transform="translate(127.661019, 177.306971) rotate(-225.000000) translate(-127.661019, -177.306971)"/></g></g></g></svg>